<svg id="bold" enable-background="new 0 0 32 32" height="512" viewBox="0 0 32 32" width="512" xmlns="http://www.w3.org/2000/svg"><path d="m26 32h-20c-3.314 0-6-2.686-6-6v-20c0-3.314 2.686-6 6-6h20c3.314 0 6 2.686 6 6v20c0 3.314-2.686 6-6 6z" fill="#f5e6fe"/><path d="m22 8.667h-12c-1.103 0-2 .897-2 2v10.667c0 1.103.897 2 2 2h12c1.103 0 2-.897 2-2v-10.667c0-1.103-.897-2-2-2zm0 13.333h-12c-.368 0-.667-.299-.667-.667v-9.333h13.333v9.333c.001.368-.298.667-.666.667z" fill="#be63f9"/><path d="m21.5 13.333h-2-7-2c-.276 0-.5.224-.5.5v7c0 .276.224.5.5.5h2 7 2c.276 0 .5-.224.5-.5v-7c0-.276-.224-.5-.5-.5zm-.5 3.334h-1v-2.333h1zm-9-2.334v2.333h-1v-2.333zm-1 3.334h1v2.667h-1zm2 2.666v-6h6v6zm7 0v-2.667h1v2.667z" fill="#d9a4fc"/><path d="m17.745 16.898-2.667-1.5c-.155-.087-.344-.086-.497.004s-.248.254-.248.432v3c0 .178.094.342.248.432.078.046.165.068.252.068.085 0 .169-.021.245-.064l2.667-1.5c.158-.09.255-.256.255-.437s-.097-.347-.255-.435z" fill="#be63f9"/></svg>